<svg width="61" height="81" viewBox="0 0 61 81" fill="none" xmlns="http://www.w3.org/2000/svg">
<path d="M37.0728 0H10.1667C7.4703 0 4.88437 1.06674 2.97775 2.96554C1.07113 4.86435 0 7.43968 0 10.125V70.875C0 73.5603 1.07113 76.1357 2.97775 78.0345C4.88437 79.9333 7.4703 81 10.1667 81H50.8333C53.5297 81 56.1156 79.9333 58.0223 78.0345C59.9289 76.1357 61 73.5603 61 70.875V23.8292C60.9997 22.4866 60.464 21.1992 59.5106 20.25L40.6667 1.48331C39.7136 0.533844 38.4208 0.000286727 37.0728 0ZM38.125 17.7188V7.59375L53.375 22.7812H43.2083C41.8601 22.7812 40.5672 22.2479 39.6139 21.2985C38.6606 20.3491 38.125 19.0614 38.125 17.7188ZM45.75 33.615V42.4744L35.5833 45.0056V63.2812C35.5833 65.7872 34.0533 67.7514 32.2182 68.9664C30.3678 70.1966 27.9533 70.875 25.4167 70.875C22.875 70.875 20.4655 70.1966 18.6152 68.9664C16.7852 67.7514 15.25 65.7872 15.25 63.2812C15.25 60.7753 16.7801 58.8111 18.6152 57.5961C20.4655 56.3659 22.8801 55.6875 25.4167 55.6875C27.2263 55.6875 28.975 56.0317 30.5 56.6798V34.8806C30.5 33.752 30.8787 32.6558 31.5759 31.7661C32.2731 30.8764 33.2488 30.2442 34.3481 29.97L39.4314 28.7044C40.181 28.5174 40.9634 28.503 41.7194 28.6624C42.4753 28.8217 43.1848 29.1506 43.794 29.6241C44.4032 30.0975 44.8959 30.703 45.2349 31.3945C45.5738 32.0861 45.75 32.8455 45.75 33.615Z" fill="white"/>
</svg>
