<svg width="100" height="100" viewBox="0 0 100 100" fill="none" xmlns="http://www.w3.org/2000/svg">
<path d="M3.125 61.875C3.9538 61.875 4.74866 62.2042 5.33471 62.7903C5.92076 63.3763 6.25 64.1712 6.25 65V80.625C6.25 82.2826 6.90848 83.8723 8.08058 85.0444C9.25268 86.2165 10.8424 86.875 12.5 86.875H87.5C89.1576 86.875 90.7473 86.2165 91.9194 85.0444C93.0915 83.8723 93.75 82.2826 93.75 80.625V65C93.75 64.1712 94.0792 63.3763 94.6653 62.7903C95.2513 62.2042 96.0462 61.875 96.875 61.875C97.7038 61.875 98.4987 62.2042 99.0847 62.7903C99.6708 63.3763 100 64.1712 100 65V80.625C100 83.9402 98.683 87.1196 96.3388 89.4638C93.9946 91.808 90.8152 93.125 87.5 93.125H12.5C9.18479 93.125 6.00537 91.808 3.66117 89.4638C1.31696 87.1196 0 83.9402 0 80.625V65C0 64.1712 0.32924 63.3763 0.915291 62.7903C1.50134 62.2042 2.2962 61.875 3.125 61.875Z" fill="white"/>
<path d="M47.7875 74.0875C48.0778 74.3785 48.4226 74.6094 48.8023 74.767C49.1819 74.9245 49.5889 75.0056 50 75.0056C50.411 75.0056 50.818 74.9245 51.1977 74.767C51.5773 74.6094 51.9222 74.3785 52.2125 74.0875L70.9625 55.3375C71.5493 54.7507 71.8789 53.9548 71.8789 53.125C71.8789 52.2952 71.5493 51.4993 70.9625 50.9125C70.3757 50.3257 69.5798 49.9961 68.75 49.9961C67.9201 49.9961 67.1243 50.3257 66.5375 50.9125L53.125 64.3313V9.375C53.125 8.5462 52.7957 7.75134 52.2097 7.16529C51.6236 6.57924 50.8288 6.25 50 6.25C49.1712 6.25 48.3763 6.57924 47.7903 7.16529C47.2042 7.75134 46.875 8.5462 46.875 9.375V64.3313L33.4625 50.9125C32.8757 50.3257 32.0798 49.9961 31.25 49.9961C30.4201 49.9961 29.6243 50.3257 29.0375 50.9125C28.4507 51.4993 28.121 52.2952 28.121 53.125C28.121 53.9548 28.4507 54.7507 29.0375 55.3375L47.7875 74.0875Z" fill="white"/>
</svg>
