<svg width="100" height="100" viewBox="0 0 100 100" fill="none" xmlns="http://www.w3.org/2000/svg">
<path d="M0 37.5C0 34.1848 1.31696 31.0054 3.66117 28.6612C6.00537 26.317 9.18479 25 12.5 25H87.5C90.8152 25 93.9946 26.317 96.3388 28.6612C98.683 31.0054 100 34.1848 100 37.5V68.75C100 72.0652 98.683 75.2446 96.3388 77.5888C93.9946 79.933 90.8152 81.25 87.5 81.25H12.5C9.18479 81.25 6.00537 79.933 3.66117 77.5888C1.31696 75.2446 0 72.0652 0 68.75V37.5ZM81.25 39.0625V42.1875C81.25 43.05 81.95 43.75 82.8125 43.75H85.9375C86.3519 43.75 86.7493 43.5854 87.0424 43.2924C87.3354 42.9993 87.5 42.6019 87.5 42.1875V39.0625C87.5 38.6481 87.3354 38.2507 87.0424 37.9576C86.7493 37.6646 86.3519 37.5 85.9375 37.5H82.8125C82.3981 37.5 82.0007 37.6646 81.7076 37.9576C81.4146 38.2507 81.25 38.6481 81.25 39.0625ZM14.0625 50C13.6481 50 13.2507 50.1646 12.9576 50.4576C12.6646 50.7507 12.5 51.1481 12.5 51.5625V54.6875C12.5 55.55 13.2 56.25 14.0625 56.25H17.1875C17.6019 56.25 17.9993 56.0854 18.2924 55.7924C18.5854 55.4993 18.75 55.1019 18.75 54.6875V51.5625C18.75 51.1481 18.5854 50.7507 18.2924 50.4576C17.9993 50.1646 17.6019 50 17.1875 50H14.0625ZM25 51.5625V54.6875C25 55.55 25.7 56.25 26.5625 56.25H29.6875C30.1019 56.25 30.4993 56.0854 30.7924 55.7924C31.0854 55.4993 31.25 55.1019 31.25 54.6875V51.5625C31.25 51.1481 31.0854 50.7507 30.7924 50.4576C30.4993 50.1646 30.1019 50 29.6875 50H26.5625C26.1481 50 25.7507 50.1646 25.4576 50.4576C25.1646 50.7507 25 51.1481 25 51.5625ZM39.0625 50C38.6481 50 38.2507 50.1646 37.9576 50.4576C37.6646 50.7507 37.5 51.1481 37.5 51.5625V54.6875C37.5 55.55 38.2 56.25 39.0625 56.25H42.1875C42.6019 56.25 42.9993 56.0854 43.2924 55.7924C43.5854 55.4993 43.75 55.1019 43.75 54.6875V51.5625C43.75 51.1481 43.5854 50.7507 43.2924 50.4576C42.9993 50.1646 42.6019 50 42.1875 50H39.0625ZM50 51.5625V54.6875C50 55.55 50.7 56.25 51.5625 56.25H54.6875C55.1019 56.25 55.4993 56.0854 55.7924 55.7924C56.0854 55.4993 56.25 55.1019 56.25 54.6875V51.5625C56.25 51.1481 56.0854 50.7507 55.7924 50.4576C55.4993 50.1646 55.1019 50 54.6875 50H51.5625C51.1481 50 50.7507 50.1646 50.4576 50.4576C50.1646 50.7507 50 51.1481 50 51.5625ZM82.8125 50C82.3981 50 82.0007 50.1646 81.7076 50.4576C81.4146 50.7507 81.25 51.1481 81.25 51.5625V54.6875C81.25 55.55 81.95 56.25 82.8125 56.25H85.9375C86.3519 56.25 86.7493 56.0854 87.0424 55.7924C87.3354 55.4993 87.5 55.1019 87.5 54.6875V51.5625C87.5 51.1481 87.3354 50.7507 87.0424 50.4576C86.7493 50.1646 86.3519 50 85.9375 50H82.8125ZM82.8125 62.5C82.3981 62.5 82.0007 62.6646 81.7076 62.9576C81.4146 63.2507 81.25 63.6481 81.25 64.0625V67.1875C81.25 68.05 81.95 68.75 82.8125 68.75H85.9375C86.3519 68.75 86.7493 68.5854 87.0424 68.2924C87.3354 67.9993 87.5 67.6019 87.5 67.1875V64.0625C87.5 63.6481 87.3354 63.2507 87.0424 62.9576C86.7493 62.6646 86.3519 62.5 85.9375 62.5H82.8125ZM64.0625 50C63.6481 50 63.2507 50.1646 62.9576 50.4576C62.6646 50.7507 62.5 51.1481 62.5 51.5625V54.6875C62.5 55.55 63.2 56.25 64.0625 56.25H73.4375C73.8519 56.25 74.2493 56.0854 74.5424 55.7924C74.8354 55.4993 75 55.1019 75 54.6875V51.5625C75 51.1481 74.8354 50.7507 74.5424 50.4576C74.2493 50.1646 73.8519 50 73.4375 50H64.0625ZM68.75 64.0625V67.1875C68.75 68.05 69.45 68.75 70.3125 68.75H73.4375C73.8519 68.75 74.2493 68.5854 74.5424 68.2924C74.8354 67.9993 75 67.6019 75 67.1875V64.0625C75 63.6481 74.8354 63.2507 74.5424 62.9576C74.2493 62.6646 73.8519 62.5 73.4375 62.5H70.3125C69.8981 62.5 69.5007 62.6646 69.2076 62.9576C68.9146 63.2507 68.75 63.6481 68.75 64.0625ZM70.3125 37.5C69.8981 37.5 69.5007 37.6646 69.2076 37.9576C68.9146 38.2507 68.75 38.6481 68.75 39.0625V42.1875C68.75 43.05 69.45 43.75 70.3125 43.75H73.4375C73.8519 43.75 74.2493 43.5854 74.5424 43.2924C74.8354 42.9993 75 42.6019 75 42.1875V39.0625C75 38.6481 74.8354 38.2507 74.5424 37.9576C74.2493 37.6646 73.8519 37.5 73.4375 37.5H70.3125ZM56.25 39.0625V42.1875C56.25 43.05 56.95 43.75 57.8125 43.75H60.9375C61.3519 43.75 61.7493 43.5854 62.0424 43.2924C62.3354 42.9993 62.5 42.6019 62.5 42.1875V39.0625C62.5 38.6481 62.3354 38.2507 62.0424 37.9576C61.7493 37.6646 61.3519 37.5 60.9375 37.5H57.8125C57.3981 37.5 57.0007 37.6646 56.7076 37.9576C56.4146 38.2507 56.25 38.6481 56.25 39.0625ZM45.3125 37.5C44.8981 37.5 44.5007 37.6646 44.2076 37.9576C43.9146 38.2507 43.75 38.6481 43.75 39.0625V42.1875C43.75 43.05 44.45 43.75 45.3125 43.75H48.4375C48.8519 43.75 49.2493 43.5854 49.5424 43.2924C49.8354 42.9993 50 42.6019 50 42.1875V39.0625C50 38.6481 49.8354 38.2507 49.5424 37.9576C49.2493 37.6646 48.8519 37.5 48.4375 37.5H45.3125ZM31.25 39.0625V42.1875C31.25 43.05 31.95 43.75 32.8125 43.75H35.9375C36.3519 43.75 36.7493 43.5854 37.0424 43.2924C37.3354 42.9993 37.5 42.6019 37.5 42.1875V39.0625C37.5 38.6481 37.3354 38.2507 37.0424 37.9576C36.7493 37.6646 36.3519 37.5 35.9375 37.5H32.8125C32.3981 37.5 32.0007 37.6646 31.7076 37.9576C31.4146 38.2507 31.25 38.6481 31.25 39.0625ZM14.0625 37.5C13.6481 37.5 13.2507 37.6646 12.9576 37.9576C12.6646 38.2507 12.5 38.6481 12.5 39.0625V42.1875C12.5 43.05 13.2 43.75 14.0625 43.75H23.4375C23.8519 43.75 24.2493 43.5854 24.5424 43.2924C24.8354 42.9993 25 42.6019 25 42.1875V39.0625C25 38.6481 24.8354 38.2507 24.5424 37.9576C24.2493 37.6646 23.8519 37.5 23.4375 37.5H14.0625ZM12.5 64.0625V67.1875C12.5 68.05 13.2 68.75 14.0625 68.75H17.1875C17.6019 68.75 17.9993 68.5854 18.2924 68.2924C18.5854 67.9993 18.75 67.6019 18.75 67.1875V64.0625C18.75 63.6481 18.5854 63.2507 18.2924 62.9576C17.9993 62.6646 17.6019 62.5 17.1875 62.5H14.0625C13.6481 62.5 13.2507 62.6646 12.9576 62.9576C12.6646 63.2507 12.5 63.6481 12.5 64.0625ZM26.5625 62.5C26.1481 62.5 25.7507 62.6646 25.4576 62.9576C25.1646 63.2507 25 63.6481 25 64.0625V67.1875C25 68.05 25.7 68.75 26.5625 68.75H60.9375C61.3519 68.75 61.7493 68.5854 62.0424 68.2924C62.3354 67.9993 62.5 67.6019 62.5 67.1875V64.0625C62.5 63.6481 62.3354 63.2507 62.0424 62.9576C61.7493 62.6646 61.3519 62.5 60.9375 62.5H26.5625Z" fill="white"/>
</svg>
