  <svg
              width="19"
              height="17"
              viewBox="0 0 19 17"
              fill="none"
              xmlns="http://www.w3.org/2000/svg"
            >
              <path
                d="M15.8331 2.12243C16.9529 1.25404 18.3185 2.01777 19 3.33591L11.113 8.48684L19 13.6378C18.3185 14.9559 16.9529 15.7196 15.8331 14.8513L9.35982 9.63244L5.98892 11.8331C6.34467 12.6129 6.42877 13.5123 6.22496 14.3573C6.02116 15.2023 5.54392 15.9329 4.88555 16.4078C4.22719 16.8827 3.43447 17.0681 2.66073 16.9282C1.88699 16.7883 1.18721 16.3331 0.696714 15.6505C0.206223 14.9679 -0.0401192 14.1065 0.00533295 13.2329C0.0507851 12.3592 0.384802 11.5354 0.942781 10.9209C1.50076 10.3063 2.24306 9.94452 3.0261 9.9056C3.80914 9.86668 4.57729 10.1533 5.18198 10.7101L7.94102 8.48684L5.18325 6.26354C4.57856 6.82034 3.81041 7.10701 3.02736 7.06809C2.24432 7.02916 1.50203 6.66743 0.94405 6.05283C0.386068 5.43824 0.0520515 4.61447 0.00659752 3.74083C-0.0388546 2.8672 0.207489 2.00579 0.697981 1.3232C1.18847 0.640611 1.88826 0.185351 2.662 0.0454717C3.43574 -0.094408 4.22845 0.0910313 4.88682 0.565924C5.54518 1.04082 6.02242 1.77142 6.22623 2.61642C6.43004 3.46143 6.34593 4.36079 5.99018 5.14057L9.35982 7.34125L15.8331 2.12243ZM3.16527 5.65821C3.66922 5.65821 4.15254 5.4347 4.50889 5.03685C4.86524 4.63899 5.06544 4.09939 5.06544 3.53674C5.06544 2.97409 4.86524 2.43449 4.50889 2.03663C4.15254 1.63878 3.66922 1.41527 3.16527 1.41527C2.66131 1.41527 2.178 1.63878 1.82165 2.03663C1.4653 2.43449 1.2651 2.97409 1.2651 3.53674C1.2651 4.09939 1.4653 4.63899 1.82165 5.03685C2.178 5.4347 2.66131 5.65821 3.16527 5.65821ZM3.16527 15.5584C3.66922 15.5584 4.15254 15.3349 4.50889 14.9371C4.86524 14.5392 5.06544 13.9996 5.06544 13.4369C5.06544 12.8743 4.86524 12.3347 4.50889 11.9368C4.15254 11.539 3.66922 11.3155 3.16527 11.3155C2.66131 11.3155 2.178 11.539 1.82165 11.9368C1.4653 12.3347 1.2651 12.8743 1.2651 13.4369C1.2651 13.9996 1.4653 14.5392 1.82165 14.9371C2.178 15.3349 2.66131 15.5584 3.16527 15.5584Z"
                fill="white"
              />
            </svg>