            <svg
              width="43"
              height="43"
              viewBox="0 0 43 43"
              fill="none"
              xmlns="http://www.w3.org/2000/svg"
            >
              <g clip-path="url(#clip0_26_2600)">
                <path
                  d="M21.5 43C27.2022 43 32.6708 40.7348 36.7028 36.7028C40.7348 32.6708 43 27.2022 43 21.5C43 15.7978 40.7348 10.3292 36.7028 6.2972C32.6708 2.26517 27.2022 0 21.5 0C15.7978 0 10.3292 2.26517 6.2972 6.2972C2.26517 10.3292 0 15.7978 0 21.5C0 27.2022 2.26517 32.6708 6.2972 36.7028C10.3292 40.7348 15.7978 43 21.5 43ZM23.9994 17.7052L21.3119 30.3499C21.1237 31.2637 21.3898 31.7824 22.1289 31.7824C22.6503 31.7824 23.4377 31.5942 23.9725 31.1213L23.736 32.2393C22.9647 33.1691 21.2635 33.8464 19.7988 33.8464C17.9095 33.8464 17.1059 32.7122 17.6273 30.3016L19.6107 20.9813C19.7827 20.1939 19.6268 19.909 18.8394 19.7182L17.6273 19.5005L17.8477 18.4766L23.9994 17.7052ZM21.5 14.7812C20.7872 14.7812 20.1037 14.4981 19.5997 13.9941C19.0956 13.4901 18.8125 12.8065 18.8125 12.0938C18.8125 11.381 19.0956 10.6974 19.5997 10.1934C20.1037 9.6894 20.7872 9.40625 21.5 9.40625C22.2128 9.40625 22.8963 9.6894 23.4003 10.1934C23.9044 10.6974 24.1875 11.381 24.1875 12.0938C24.1875 12.8065 23.9044 13.4901 23.4003 13.9941C22.8963 14.4981 22.2128 14.7812 21.5 14.7812Z"
                  fill="white"
                />
              </g>
              <defs>
                <clipPath id="clip0_26_2600">
                  <rect width="43" height="43" fill="white" />
                </clipPath>
              </defs>
            </svg>