        <svg
              viewBox="0 -1 27 27"
              fill="white"
              xmlns="http://www.w3.org/2000/svg"
            >
              <path
                fill-rule="evenodd"
                clip-rule="evenodd"
                d="M13.5 5.0625C15.3236 5.0632 17.0979 5.65469 18.5571 6.74838C20.0163 7.84206 21.0819 9.37907 21.5943 11.1292C22.1067 12.8793 22.0383 14.7483 21.3994 16.4563C20.7605 18.1643 19.5853 19.6193 18.0501 20.6034C16.5148 21.5875 14.7021 22.0478 12.8833 21.9152C11.0645 21.7826 9.33769 21.0643 7.96139 19.868C6.58509 18.6716 5.63342 17.0616 5.24894 15.279C4.86445 13.4964 5.06784 11.6372 5.82865 9.97988C5.91145 9.77838 5.91312 9.55266 5.83329 9.34997C5.75346 9.14727 5.59833 8.98331 5.40036 8.89239C5.20239 8.80147 4.97693 8.79065 4.77116 8.86219C4.5654 8.93372 4.39527 9.08207 4.2964 9.27619C3.38347 11.2651 3.1395 13.4962 3.60103 15.6353C4.06255 17.7745 5.20472 19.7066 6.85646 21.1421C8.5082 22.5776 10.5806 23.4394 12.7632 23.5983C14.9458 23.7572 17.1211 23.2046 18.9634 22.0234C20.8056 20.8422 22.2155 19.096 22.982 17.0462C23.7484 14.9964 23.8302 12.7535 23.2149 10.6534C22.5996 8.55326 21.3205 6.70902 19.5691 5.39688C17.8178 4.08475 15.6884 3.37537 13.5 3.375V5.0625Z"
                fill="white"
              />
              <path
                d="M13.5 7.53646V0.901209C13.5 0.821047 13.4771 0.742553 13.4341 0.674917C13.3911 0.607282 13.3296 0.553306 13.2571 0.51931C13.1845 0.485313 13.1037 0.472704 13.0242 0.482958C12.9447 0.493212 12.8697 0.525905 12.8081 0.577209L8.82564 3.89483C8.77816 3.93443 8.73996 3.98397 8.71375 4.03996C8.68754 4.09595 8.67395 4.15701 8.67395 4.21883C8.67395 4.28066 8.68754 4.34172 8.71375 4.39771C8.73996 4.4537 8.77816 4.50324 8.82564 4.54283L12.8081 7.86046C12.8697 7.91176 12.9447 7.94446 13.0242 7.95471C13.1037 7.96497 13.1845 7.95236 13.2571 7.91836C13.3296 7.88436 13.3911 7.83039 13.4341 7.76275C13.4771 7.69512 13.5 7.61662 13.5 7.53646Z"
                fill="white"
              />
            </svg>